<svg width="29" height="29" viewBox="0 0 29 29" fill="none" xmlns="http://www.w3.org/2000/svg">
<path d="M23.4673 15.2533C22.8193 15.2533 22.294 14.728 22.294 14.08C22.294 13.432 22.8193 12.9067 23.4673 12.9067C24.1153 12.9067 24.6406 13.432 24.6406 14.08C24.6406 14.728 24.1153 15.2533 23.4673 15.2533Z" fill="#DCE8FF"/>
<path d="M18.8913 12.9067H4.69393C4.10726 12.9067 3.63793 13.376 3.63793 13.9627V14.08C3.63793 14.6667 4.10726 15.136 4.69393 15.136H18.8913C19.4779 15.2533 19.9473 14.784 19.9473 14.1973V14.08C19.9473 13.376 19.4779 12.9067 18.8913 12.9067Z" fill="#DCE8FF"/>
<path d="M23.5846 18.7733H4.69396C4.10729 18.7733 3.63796 19.2426 3.63796 19.8293V19.9466C3.63796 20.5333 4.10729 21.0026 4.69396 21.0026H23.5846C24.1713 21.12 24.6406 20.6506 24.6406 20.064V19.9466C24.6406 19.2426 24.1713 18.7733 23.5846 18.7733Z" fill="#DCE8FF"/>
<path d="M23.5846 7.03998H4.69396C3.98996 7.03998 3.52062 7.50931 3.52062 8.09598V8.21331C3.52062 8.91731 3.98996 9.38664 4.57662 9.38664H23.5846C24.1713 9.38664 24.6406 8.91731 24.6406 8.33064V8.09598C24.6406 7.50931 24.1713 7.03998 23.5846 7.03998Z" fill="#DCE8FF"/>
</svg>
